<?xml version="1.0" encoding="utf-8"?>
<!-- Generator: Adobe Illustrator 24.0.3, SVG Export Plug-In . SVG Version: 6.00 Build 0)  -->
<svg version="1.1" id="map-planner" xmlns="http://www.w3.org/2000/svg" xmlns:xlink="http://www.w3.org/1999/xlink" x="0px"
	 y="0px" viewBox="0 0 700 700" style="enable-background:new 0 0 700 700;" xml:space="preserve">
<style type="text/css">
	.st0{fill:#49545C;}
	.st1{fill:#5B5B5B;}
	.st2{fill-rule:evenodd;clip-rule:evenodd;fill:#5B5B5B;}
	.st3{fill:#FFFFFF;}
</style>
<path class="st1" d="M544.2,547.6l-34.1-306.7c-1.9-17.1-16.3-30-33.5-30h-52.5l-5.1-36c-2.4-16.7-10.6-32-23.3-42.9
	C383,121.1,366.8,115,350,115c-16.8,0-33.1,6-45.7,17c-12.7,11-20.9,26.2-23.3,42.8l-5.1,36h-52.5c-17.2,0-31.6,12.9-33.5,30
	l-34.1,306.7c-1.1,9.5,2,19,8.4,26.2s15.5,11.2,25.1,11.2h321.4c9.6,0,18.7-4.1,25.1-11.2C542.2,566.6,545.2,557.1,544.2,547.6z
	 M309.7,178.9c2.8-20.2,19.8-34.9,40.3-34.9c9.9,0,19.4,3.5,26.8,9.9c7.3,6.3,12.1,15.2,13.5,25l4.5,32h-89.7L309.7,178.9z
	 M514.2,554.4c-0.5,0.6-1.7,1.6-3.5,1.6H189.3c-1.8,0-3-1-3.5-1.6c-0.5-0.6-1.4-1.8-1.2-3.6L218.7,244c0.3-2.4,2.3-4.2,4.6-4.2
	h188.1c0,0,0,0,0,0c0,0,0,0,0.1,0h65c2.4,0,4.4,1.8,4.6,4.2l34.1,306.7C515.5,552.6,514.7,553.8,514.2,554.4z"/>
</svg>
