<?xml version="1.0" encoding="utf-8"?>
<!-- Generator: Adobe Illustrator 24.0.3, SVG Export Plug-In . SVG Version: 6.00 Build 0)  -->
<svg version="1.1" id="map-planner" xmlns="http://www.w3.org/2000/svg" xmlns:xlink="http://www.w3.org/1999/xlink" x="0px"
	 y="0px" viewBox="0 0 700 700" style="enable-background:new 0 0 700 700;" xml:space="preserve">
<style type="text/css">
	.st0{fill:#49545C;}
	.st1{fill:#5B5B5B;}
	.st2{fill-rule:evenodd;clip-rule:evenodd;fill:#5B5B5B;}
	.st3{fill:#FFFFFF;}
</style>
<g>
	<g>
		<g>
			<path class="st0" d="M429.3,189c-9-9-19.2-16.1-30-21.4c-0.3-0.2-0.7-0.3-1-0.5c-1-0.5-2.1-1-3.1-1.4c-0.7-0.3-1.5-0.7-2.2-1
				c-0.7-0.3-1.3-0.5-2-0.8c-1.2-0.5-2.3-0.9-3.5-1.3c-0.3-0.1-0.5-0.2-0.8-0.3c-11.5-4-23.8-6.2-36.6-6.2
				c-12.8,0-25.1,2.2-36.5,6.1c-0.3,0.1-0.6,0.2-0.8,0.3c-1.2,0.4-2.3,0.9-3.5,1.3c-0.7,0.3-1.4,0.5-2,0.8c-0.7,0.3-1.5,0.6-2.2,1
				c-1.1,0.5-2.1,0.9-3.2,1.4c-0.3,0.2-0.7,0.3-1,0.5c-10.9,5.3-21,12.4-30,21.4c-9,9-16.2,19.2-21.5,30.1c-0.1,0.3-0.3,0.6-0.4,0.9
				c-0.5,1.1-1,2.2-1.5,3.3c-0.3,0.7-0.6,1.4-0.9,2.1c-0.3,0.7-0.6,1.4-0.9,2.2c-0.4,1.1-0.9,2.2-1.3,3.3c-0.1,0.3-0.2,0.7-0.3,1
				c-3.9,11.4-6.1,23.7-6.1,36.4c0,0.1,0.1,0.2,0.1,0.3c0,10,1.4,19.9,4,29.6c0,0.1,0,0.3,0,0.4c0.1,0.5,0.3,0.9,0.5,1.4
				c0.6,2,1.3,4.1,2,6.1c0.4,1,0.7,2,1.1,3c0.8,2.2,1.7,4.3,2.7,6.5c0.2,0.5,0.5,1,0.7,1.5c1,2.1,2.1,4.2,3.3,6.3
				c0.2,0.4,0.4,0.8,0.6,1.2c1.4,2.4,2.9,4.8,4.5,7.1c0.1,0.2,0.2,0.3,0.3,0.5c3.8,5.5,8.1,10.7,13,15.6c0.2,0.2,0.4,0.2,0.6,0.4
				c6.9,6.8,14.6,12.7,23,17.5c0.2,0.2,0.4,0.4,0.7,0.6c11.2,6.3,23.2,10.5,35.4,12.6c1,0.2,2,0.3,2.9,0.5c1.6,0.2,3.2,0.4,4.9,0.6
				c1.3,0.1,2.7,0.3,4,0.4c1.2,0.1,2.3,0.1,3.5,0.1c1.5,0.1,2.9,0.2,4.4,0.2c18.7,0,36.4-4.6,51.9-12.8c0.2-0.1,0.4-0.2,0.6-0.3
				c1.1-0.6,2.1-1.1,3.1-1.7c0.7-0.4,1.4-0.8,2.1-1.2c0.5-0.3,1-0.6,1.4-0.9c7.2-4.5,14-9.7,20.1-15.9
				c21.2-21.2,32.9-49.3,32.9-79.3S450.5,210.2,429.3,189z M402.7,323.9c-0.7,0.6-1.3,1.2-2,1.8c-0.6,0.6-1.3,1.1-2,1.7
				c-1.1,0.9-2.3,1.8-3.4,2.7c-0.6,0.4-1.1,0.8-1.7,1.2c-1.4,0.9-2.7,1.9-4.1,2.7c-0.2,0.1-0.5,0.3-0.7,0.4
				c-12.3,7.2-26.2,10.8-40.2,10.5c-0.5,0-1.1,0-1.6-0.1c-1.5-0.1-3-0.1-4.4-0.3c-0.8-0.1-1.7-0.2-2.5-0.3c-1.1-0.1-2.3-0.3-3.4-0.5
				c-1.3-0.2-2.6-0.5-3.9-0.8c-0.6-0.1-1.3-0.3-1.9-0.4c-1.8-0.5-3.5-1-5.3-1.6c-0.1,0-0.3-0.1-0.4-0.1
				c-11.5-3.9-21.9-10.6-30.3-19.2c-0.9-1-1.8-2-2.7-3c-1-1.1-1.9-2.2-2.8-3.4c-1-1.4-2.1-2.7-3-4.1c-0.5-0.7-0.9-1.5-1.4-2.2
				c-0.8-1.3-1.6-2.6-2.3-4c-0.4-0.7-0.7-1.4-1.1-2.1c-0.8-1.5-1.5-3.1-2.1-4.6c-0.2-0.6-0.5-1.1-0.7-1.7c-0.8-1.9-1.5-3.9-2.1-5.9
				c-0.1-0.2-0.1-0.4-0.2-0.6c-4.8-16.4-4-34.1,2.3-50.1c0.1-0.2,0.2-0.5,0.3-0.7c0.8-1.9,1.7-3.8,2.7-5.7c0.2-0.4,0.4-0.9,0.7-1.3
				c0.9-1.7,1.9-3.3,2.9-5c0.4-0.5,0.7-1.1,1.1-1.6c1-1.5,2.1-3,3.3-4.5c0.5-0.7,1-1.3,1.6-2c1.1-1.4,2.3-2.7,3.6-4
				c0.6-0.6,1.2-1.3,1.9-1.9c1.3-1.3,2.6-2.5,4-3.6c0.6-0.5,1.3-1,1.9-1.6c1.5-1.2,3-2.3,4.5-3.3c0.5-0.4,1.1-0.7,1.6-1
				c1.6-1,3.3-2,5-3c0.4-0.2,0.8-0.4,1.2-0.6c1.9-1,3.8-1.9,5.8-2.7c0.2-0.1,0.4-0.2,0.6-0.2c18.2-7.3,38.7-7.3,56.9,0
				c0.2,0.1,0.4,0.2,0.6,0.3c2,0.8,3.9,1.7,5.8,2.7c0.4,0.2,0.9,0.4,1.3,0.7c1.7,0.9,3.3,1.9,5,2.9c0.5,0.3,1.1,0.7,1.6,1
				c1.5,1,3,2.1,4.5,3.3c0.7,0.5,1.3,1,2,1.6c1.4,1.1,2.7,2.3,4,3.6c14.4,13.9,23.4,33.5,23.4,55.1
				C426.6,290.2,417.4,309.9,402.7,323.9z"/>
		</g>
	</g>
	<path class="st0" d="M577.5,513.9c-11.1-12-26.7-25.8-42.6-36.1c-21.7-14-46.1-25.1-72.2-33.3c-0.8-0.3-1.6-0.5-2.4-0.8
		c-2.5-0.8-5-1.5-7.6-2.2c-1.8-0.5-3.5-1-5.3-1.5c-1.6-0.4-3.3-0.8-4.9-1.3c-2.8-0.7-5.5-1.4-8.3-2c-0.7-0.2-1.4-0.3-2-0.4
		c-25.8-5.8-53.4-9.1-82-9.5c-28.7,0.4-56.2,3.7-82,9.5c-0.7,0.2-1.4,0.3-2,0.4c-2.8,0.6-5.6,1.3-8.3,2c-1.6,0.4-3.3,0.8-4.9,1.3
		c-1.8,0.5-3.6,1-5.3,1.5c-2.5,0.7-5.1,1.5-7.6,2.2c-0.8,0.3-1.6,0.5-2.4,0.8c-26.1,8.2-50.6,19.3-72.2,33.3
		c-15.9,10.3-31.5,24.1-42.6,36.1c-17.3,15.3,14.1,39.5,28,25.8c5-5,14.1-14.1,21.3-21c1.5-1.4,3.2-2.6,4.9-3.9
		c3.5-2.7,7.2-5.3,11-7.9c1.9-1.3,3.8-2.5,5.7-3.7c4-2.5,8.1-4.9,12.2-7.2c1.9-1.1,3.9-2.1,5.9-3.1c4.5-2.3,9.1-4.5,13.8-6.5
		c1.6-0.7,3.3-1.4,4.9-2c5-2.1,10.1-4,15.3-5.8c1.2-0.4,2.5-0.8,3.8-1.3c5.8-1.9,11.7-3.7,17.7-5.3c0.6-0.2,1.2-0.3,1.9-0.5
		c26-6.7,53.5-10.3,81.1-10.7c27.6,0.4,55.1,4,81.1,10.7c0.6,0.2,1.2,0.3,1.9,0.5c6,1.6,11.9,3.4,17.7,5.3c1.3,0.4,2.5,0.8,3.8,1.3
		c5.2,1.8,10.3,3.8,15.3,5.8c1.6,0.7,3.3,1.3,4.9,2c4.7,2,9.3,4.3,13.8,6.5c2,1,4,2,5.9,3.1c4.2,2.3,8.3,4.7,12.2,7.2
		c1.9,1.2,3.9,2.5,5.7,3.7c3.8,2.6,7.5,5.2,11,7.9c1.7,1.3,3.4,2.5,4.9,3.9c7.2,6.9,16.3,16,21.3,21
		C563.4,553.5,594.7,529.2,577.5,513.9z"/>
</g>
</svg>
