<?xml version="1.0" encoding="utf-8"?>
<!-- Generator: Adobe Illustrator 24.0.3, SVG Export Plug-In . SVG Version: 6.00 Build 0)  -->
<svg version="1.1" id="map-planner" xmlns="http://www.w3.org/2000/svg" xmlns:xlink="http://www.w3.org/1999/xlink" x="0px"
	 y="0px" viewBox="0 0 700 700" style="enable-background:new 0 0 700 700;" xml:space="preserve">
<style type="text/css">
	.st0{fill:#49545C;}
	.st1{fill:#5B5B5B;}
	.st2{fill-rule:evenodd;clip-rule:evenodd;fill:#5B5B5B;}
	.st3{fill:#FFFFFF;}
	.st4{fill:none;stroke:#FFFFFF;stroke-width:4;stroke-miterlimit:10;}
	.st5{fill:#5B5B5B;stroke:#FFFFFF;stroke-width:0.75;stroke-miterlimit:10;}
</style>
<g>
	<g>
		<path class="st0" d="M-5410,604.4c-4.8,0-9.6-1.8-13.2-5.5c-7.7-7.7-188.8-190.1-188.8-306.5c0-123.2,102.7-196.8,202-196.8
			s202,73.6,202,196.8c0,116.4-181.1,298.8-188.8,306.5C-5400.4,602.5-5405.2,604.4-5410,604.4L-5410,604.4z M-5410,131
			c-80.9,0-166.6,61.6-166.6,161.4c0,77.2,110.7,211.6,166.6,270.4c55.9-58.9,166.6-193.3,166.6-270.4
			C-5243.4,192.7-5323.8,131-5410,131L-5410,131z"/>
	</g>
	<g>
		<path class="st0" d="M-5410,368.7c-39.2,0-71-31.9-71-71.1s31.9-71.1,71-71.1c39.2,0,71,31.9,71,71.1S-5370.8,368.7-5410,368.7
			L-5410,368.7z M-5410,261.3c-20,0-36.3,16.3-36.3,36.4c0,20.1,16.3,36.4,36.3,36.4s36.3-16.3,36.3-36.4
			C-5373.7,277.6-5390,261.3-5410,261.3L-5410,261.3z"/>
	</g>
</g>
<g>
	<g>
		<path class="st0" d="M-4563.8,570.7c1.6-0.9,3.2-1.8,4.8-2.7c1.1-0.7,2.2-1.4,3.3-2c16.3-10.1,31.7-22.1,45.6-36.1
			c48-48,74.5-111.9,74.5-179.9s-26.5-131.8-74.5-179.9c-20.4-20.4-43.5-36.6-68.1-48.6c-0.8-0.4-1.6-0.8-2.3-1.2
			c-2.3-1.1-4.7-2.2-7.1-3.2c-1.7-0.7-3.4-1.5-5.1-2.2c-1.5-0.6-3-1.2-4.5-1.8c-2.6-1-5.3-2-7.9-3c-0.6-0.2-1.2-0.4-1.8-0.6
			c-26-9-53.9-14-83-14c-29,0-56.9,4.9-82.9,13.9c-0.6,0.2-1.3,0.4-1.9,0.7c-2.6,0.9-5.2,1.9-7.8,3c-1.5,0.6-3.1,1.2-4.6,1.8
			c-1.7,0.7-3.4,1.4-5,2.2c-2.4,1-4.8,2.1-7.2,3.2c-0.8,0.4-1.5,0.8-2.3,1.1c-24.6,12-47.7,28.2-68.1,48.6
			c-20.5,20.5-36.6,43.6-48.7,68.3c-0.3,0.7-0.7,1.4-1,2.1c-1.2,2.5-2.3,4.9-3.4,7.4c-0.7,1.6-1.4,3.2-2.1,4.7
			c-0.7,1.6-1.3,3.3-1.9,4.9c-1,2.5-1.9,5-2.8,7.5c-0.3,0.7-0.5,1.5-0.8,2.2c-8.9,25.9-13.9,53.7-13.9,82.6c0,0.2,0.1,0.4,0.1,0.7
			c0.1,22.6,3.2,45.1,9.2,67.1c0.1,0.3,0,0.6,0.1,0.9c0.3,1.1,0.7,2.1,1,3.2c1.4,4.6,2.9,9.2,4.5,13.8c0.8,2.3,1.7,4.5,2.5,6.7
			c1.9,4.9,3.9,9.8,6.2,14.6c0.5,1.1,1.1,2.2,1.6,3.3c2.3,4.8,4.8,9.6,7.4,14.3c0.5,0.9,1,1.8,1.5,2.6c3.1,5.5,6.5,10.8,10.1,16.1
			c0.3,0.4,0.5,0.7,0.8,1.1c8.6,12.5,18.4,24.4,29.5,35.5c0.4,0.4,0.9,0.6,1.3,0.9c15.6,15.4,33.2,28.7,52.2,39.7
			c0.5,0.4,0.9,1,1.6,1.4c25.4,14.3,52.6,23.7,80.2,28.6c2.2,0.4,4.4,0.7,6.7,1.1c3.7,0.5,7.3,1,11,1.4c3,0.3,6,0.6,9.1,0.9
			c2.6,0.2,5.2,0.2,7.8,0.3c3.3,0.1,6.6,0.4,9.9,0.4c42.5,0,82.5-10.5,117.8-29c0.5-0.2,0.9-0.5,1.4-0.7
			C-4568.5,573.4-4566.1,572-4563.8,570.7z M-4544,515.2c-1.9,1.6-3.7,3.3-5.6,4.9c-3.2,2.7-6.5,5.2-9.9,7.7
			c-1.6,1.2-3.2,2.3-4.9,3.5c-3.9,2.7-7.9,5.3-11.9,7.8c-0.6,0.4-1.3,0.7-2,1.1c-35.3,20.7-75.5,31-115.8,30.3c-1.5,0-3-0.1-4.5-0.2
			c-4.2-0.2-8.5-0.4-12.7-0.8c-2.4-0.2-4.8-0.6-7.2-0.9c-3.3-0.4-6.5-0.8-9.8-1.4c-3.8-0.7-7.5-1.5-11.2-2.4
			c-1.8-0.4-3.6-0.8-5.4-1.2c-5.1-1.3-10.2-2.8-15.2-4.5c-0.4-0.1-0.8-0.2-1.1-0.4c-33.1-11.4-63-30.5-87.1-55.4
			c-2.7-2.8-5.2-5.7-7.8-8.6c-2.8-3.2-5.4-6.4-8-9.7c-3-3.9-6-7.8-8.7-11.9c-1.4-2.1-2.7-4.2-4-6.4c-2.3-3.8-4.6-7.5-6.7-11.4
			c-1.1-2-2.1-4-3.2-6.1c-2.2-4.4-4.3-8.8-6.2-13.3c-0.7-1.6-1.4-3.2-2-4.8c-2.2-5.6-4.2-11.3-5.9-17c-0.2-0.6-0.4-1.2-0.6-1.8
			c-13.9-47.3-11.6-98.3,6.7-144.3c0.3-0.7,0.5-1.3,0.8-2c2.3-5.6,4.9-11.1,7.6-16.5c0.6-1.3,1.3-2.5,1.9-3.8
			c2.6-4.8,5.4-9.6,8.4-14.3c1-1.6,2-3.2,3-4.7c3-4.4,6.2-8.7,9.5-12.9c1.5-1.9,3-3.8,4.6-5.7c3.3-3.9,6.8-7.7,10.4-11.5
			c1.8-1.8,3.6-3.6,5.4-5.4c3.8-3.6,7.6-7.1,11.5-10.4c1.8-1.5,3.7-3,5.6-4.5c4.2-3.3,8.6-6.6,13-9.5c1.5-1,3.1-2,4.6-3
			c4.7-3,9.5-5.9,14.4-8.5c1.2-0.6,2.4-1.2,3.6-1.8c5.5-2.8,11-5.4,16.7-7.7c0.6-0.2,1.2-0.5,1.8-0.7c52.5-20.9,111.4-20.9,163.9,0
			c0.6,0.2,1.2,0.5,1.9,0.7c5.6,2.3,11.1,4.9,16.6,7.7c1.2,0.6,2.5,1.2,3.7,1.9c4.9,2.6,9.6,5.5,14.3,8.5c1.6,1,3.2,2,4.7,3
			c4.4,3,8.7,6.2,12.9,9.5c1.9,1.5,3.8,3,5.7,4.6c3.9,3.3,7.7,6.8,11.5,10.4c41.5,40.1,67.5,96.4,67.5,158.6
			c0,62.9-26.5,119.6-68.8,159.9C-4540.1,511.7-4542,513.4-4544,515.2z"/>
	</g>
	<g>
		<g>
			<path class="st0" d="M-4731.1,301.5c0,2.2-0.4,4.2-1.3,6.1c-0.9,1.9-2,3.6-3.4,5c-1.4,1.4-3,2.6-4.9,3.4
				c-1.9,0.8-3.9,1.2-6.1,1.2c-4.5,0-8.2-1.5-11.1-4.5c-2.9-3-4.4-6.7-4.4-11.2c0-10,1.9-19.3,5.8-28.1c3.8-8.8,9-16.5,15.6-23
				c6.6-6.6,14.3-11.8,23-15.6c8.8-3.8,18.1-5.7,28-5.7s19.2,1.9,28,5.8c8.8,3.9,16.5,9.1,23,15.7c6.6,6.6,11.8,14.3,15.6,23
				c3.8,8.8,5.8,18.1,5.8,27.8c0,19.7-7.1,36.9-21.4,51.5l-23.5,21.7c-8,8-12,16.7-12,26.2c0,4.5-1.5,8.2-4.4,11.1
				c-2.9,2.9-6.7,4.4-11.1,4.4s-8.2-1.5-11.2-4.4c-3-2.9-4.5-6.7-4.5-11.1c0-18,7.1-34.1,21.4-48.3l23.5-21.8c8-8.3,12-18,12-29.2
				c0-5.6-1.1-10.9-3.3-15.9c-2.2-5-5.2-9.3-8.9-13.1c-3.7-3.7-8.1-6.7-13.1-8.9c-5-2.2-10.3-3.3-15.9-3.3c-5.7,0-11,1.1-16,3.2
				c-5,2.1-9.3,5.1-13.1,8.8c-3.7,3.7-6.7,8-8.8,13C-4730.1,290.3-4731.1,295.7-4731.1,301.5z"/>
		</g>
		<g>
			<path class="st0" d="M-4668.8,449.7c0,5.9-2.1,10.9-6.2,15c-4.1,4.1-9.2,6.2-15,6.2c-5.9,0-10.9-2.1-15-6.2
				c-4.1-4.1-6.2-9.1-6.2-15c0-5.9,2.1-10.9,6.2-15c4.1-4.1,9.1-6.2,15-6.2c5.9,0,10.9,2.1,15,6.2
				C-4670.8,438.8-4668.8,443.8-4668.8,449.7z"/>
		</g>
	</g>
</g>
<g>
	<g>
		<g>
			<path class="st0" d="M-3890.7,189c-9-9-19.2-16.1-30-21.4c-0.3-0.2-0.7-0.3-1-0.5c-1-0.5-2.1-1-3.1-1.4c-0.7-0.3-1.5-0.7-2.2-1
				c-0.7-0.3-1.3-0.5-2-0.8c-1.2-0.5-2.3-0.9-3.5-1.3c-0.3-0.1-0.5-0.2-0.8-0.3c-11.5-4-23.8-6.2-36.6-6.2
				c-12.8,0-25.1,2.2-36.5,6.1c-0.3,0.1-0.6,0.2-0.8,0.3c-1.2,0.4-2.3,0.9-3.5,1.3c-0.7,0.3-1.4,0.5-2,0.8c-0.7,0.3-1.5,0.6-2.2,1
				c-1.1,0.5-2.1,0.9-3.2,1.4c-0.3,0.2-0.7,0.3-1,0.5c-10.9,5.3-21,12.4-30,21.4c-9,9-16.2,19.2-21.5,30.1c-0.1,0.3-0.3,0.6-0.4,0.9
				c-0.5,1.1-1,2.2-1.5,3.3c-0.3,0.7-0.6,1.4-0.9,2.1c-0.3,0.7-0.6,1.4-0.9,2.2c-0.4,1.1-0.9,2.2-1.3,3.3c-0.1,0.3-0.2,0.7-0.3,1
				c-3.9,11.4-6.1,23.7-6.1,36.4c0,0.1,0.1,0.2,0.1,0.3c0,10,1.4,19.9,4,29.6c0,0.1,0,0.3,0,0.4c0.1,0.5,0.3,0.9,0.5,1.4
				c0.6,2,1.3,4.1,2,6.1c0.4,1,0.7,2,1.1,3c0.8,2.2,1.7,4.3,2.7,6.5c0.2,0.5,0.5,1,0.7,1.5c1,2.1,2.1,4.2,3.3,6.3
				c0.2,0.4,0.4,0.8,0.6,1.2c1.4,2.4,2.9,4.8,4.5,7.1c0.1,0.2,0.2,0.3,0.3,0.5c3.8,5.5,8.1,10.7,13,15.6c0.2,0.2,0.4,0.2,0.6,0.4
				c6.9,6.8,14.6,12.7,23,17.5c0.2,0.2,0.4,0.4,0.7,0.6c11.2,6.3,23.2,10.5,35.4,12.6c1,0.2,2,0.3,2.9,0.5c1.6,0.2,3.2,0.4,4.9,0.6
				c1.3,0.1,2.7,0.3,4,0.4c1.2,0.1,2.3,0.1,3.5,0.1c1.5,0.1,2.9,0.2,4.4,0.2c18.7,0,36.4-4.6,51.9-12.8c0.2-0.1,0.4-0.2,0.6-0.3
				c1.1-0.6,2.1-1.1,3.1-1.7c0.7-0.4,1.4-0.8,2.1-1.2c0.5-0.3,1-0.6,1.4-0.9c7.2-4.5,14-9.7,20.1-15.9
				c21.2-21.2,32.9-49.3,32.9-79.3S-3869.5,210.2-3890.7,189z M-3917.3,323.9c-0.7,0.6-1.3,1.2-2,1.8c-0.6,0.6-1.3,1.1-2,1.7
				c-1.1,0.9-2.3,1.8-3.4,2.7c-0.6,0.4-1.1,0.8-1.7,1.2c-1.4,0.9-2.7,1.9-4.1,2.7c-0.2,0.1-0.5,0.3-0.7,0.4
				c-12.3,7.2-26.2,10.8-40.2,10.5c-0.5,0-1.1,0-1.6-0.1c-1.5-0.1-3-0.1-4.4-0.3c-0.8-0.1-1.7-0.2-2.5-0.3c-1.1-0.1-2.3-0.3-3.4-0.5
				c-1.3-0.2-2.6-0.5-3.9-0.8c-0.6-0.1-1.3-0.3-1.9-0.4c-1.8-0.5-3.5-1-5.3-1.6c-0.1,0-0.3-0.1-0.4-0.1
				c-11.5-3.9-21.9-10.6-30.3-19.2c-0.9-1-1.8-2-2.7-3c-1-1.1-1.9-2.2-2.8-3.4c-1-1.4-2.1-2.7-3-4.1c-0.5-0.7-0.9-1.5-1.4-2.2
				c-0.8-1.3-1.6-2.6-2.3-4c-0.4-0.7-0.7-1.4-1.1-2.1c-0.8-1.5-1.5-3.1-2.1-4.6c-0.2-0.6-0.5-1.1-0.7-1.7c-0.8-1.9-1.5-3.9-2.1-5.9
				c-0.1-0.2-0.1-0.4-0.2-0.6c-4.8-16.4-4-34.1,2.3-50.1c0.1-0.2,0.2-0.5,0.3-0.7c0.8-1.9,1.7-3.8,2.7-5.7c0.2-0.4,0.4-0.9,0.7-1.3
				c0.9-1.7,1.9-3.3,2.9-5c0.4-0.5,0.7-1.1,1.1-1.6c1-1.5,2.1-3,3.3-4.5c0.5-0.7,1-1.3,1.6-2c1.1-1.4,2.3-2.7,3.6-4
				c0.6-0.6,1.2-1.3,1.9-1.9c1.3-1.3,2.6-2.5,4-3.6c0.6-0.5,1.3-1,1.9-1.6c1.5-1.2,3-2.3,4.5-3.3c0.5-0.4,1.1-0.7,1.6-1
				c1.6-1,3.3-2,5-3c0.4-0.2,0.8-0.4,1.2-0.6c1.9-1,3.8-1.9,5.8-2.7c0.2-0.1,0.4-0.2,0.6-0.2c18.2-7.3,38.7-7.3,56.9,0
				c0.2,0.1,0.4,0.2,0.6,0.3c2,0.8,3.9,1.7,5.8,2.7c0.4,0.2,0.9,0.4,1.3,0.7c1.7,0.9,3.3,1.9,5,2.9c0.5,0.3,1.1,0.7,1.6,1
				c1.5,1,3,2.1,4.5,3.3c0.7,0.5,1.3,1,2,1.6c1.4,1.1,2.7,2.3,4,3.6c14.4,13.9,23.4,33.5,23.4,55.1
				C-3893.4,290.2-3902.6,309.9-3917.3,323.9z"/>
		</g>
	</g>
	<path class="st0" d="M-3742.5,513.9c-11.1-12-26.7-25.8-42.6-36.1c-21.7-14-46.1-25.1-72.2-33.3c-0.8-0.3-1.6-0.5-2.4-0.8
		c-2.5-0.8-5-1.5-7.6-2.2c-1.8-0.5-3.5-1-5.3-1.5c-1.6-0.4-3.3-0.8-4.9-1.3c-2.8-0.7-5.5-1.4-8.3-2c-0.7-0.2-1.4-0.3-2-0.4
		c-25.8-5.8-53.4-9.1-82-9.5c-28.7,0.4-56.2,3.7-82,9.5c-0.7,0.2-1.4,0.3-2,0.4c-2.8,0.6-5.6,1.3-8.3,2c-1.6,0.4-3.3,0.8-4.9,1.3
		c-1.8,0.5-3.6,1-5.3,1.5c-2.5,0.7-5.1,1.5-7.6,2.2c-0.8,0.3-1.6,0.5-2.4,0.8c-26.1,8.2-50.6,19.3-72.2,33.3
		c-15.9,10.3-31.5,24.1-42.6,36.1c-17.3,15.3,14.1,39.5,28,25.8c5-5,14.1-14.1,21.3-21c1.5-1.4,3.2-2.6,4.9-3.9
		c3.5-2.7,7.2-5.3,11-7.9c1.9-1.3,3.8-2.5,5.7-3.7c4-2.5,8.1-4.9,12.2-7.2c1.9-1.1,3.9-2.1,5.9-3.1c4.5-2.3,9.1-4.5,13.8-6.5
		c1.6-0.7,3.3-1.4,4.9-2c5-2.1,10.1-4,15.3-5.8c1.2-0.4,2.5-0.8,3.8-1.3c5.8-1.9,11.7-3.7,17.7-5.3c0.6-0.2,1.2-0.3,1.9-0.5
		c26-6.7,53.5-10.3,81.1-10.7c27.6,0.4,55.1,4,81.1,10.7c0.6,0.2,1.2,0.3,1.9,0.5c6,1.6,11.9,3.4,17.7,5.3c1.3,0.4,2.5,0.8,3.8,1.3
		c5.2,1.8,10.3,3.8,15.3,5.8c1.6,0.7,3.3,1.3,4.9,2c4.7,2,9.3,4.3,13.8,6.5c2,1,4,2,5.9,3.1c4.2,2.3,8.3,4.7,12.2,7.2
		c1.9,1.2,3.9,2.5,5.7,3.7c3.8,2.6,7.5,5.2,11,7.9c1.7,1.3,3.4,2.5,4.9,3.9c7.2,6.9,16.3,16,21.3,21
		C-3756.6,553.5-3725.3,529.2-3742.5,513.9z"/>
</g>
<path class="st1" d="M-3055.8,547.6l-34.1-306.7c-1.9-17.1-16.3-30-33.5-30h-52.5l-5.1-36c-2.4-16.7-10.6-32-23.3-42.9
	c-12.7-10.9-28.9-16.9-45.7-16.9c-16.8,0-33.1,6-45.7,17c-12.7,11-20.9,26.2-23.3,42.8l-5.1,36h-52.5c-17.2,0-31.6,12.9-33.5,30
	l-34.1,306.7c-1.1,9.5,2,19,8.4,26.2s15.5,11.2,25.1,11.2h321.4c9.6,0,18.7-4.1,25.1-11.2C-3057.8,566.6-3054.8,557.1-3055.8,547.6z
	 M-3290.3,178.9c2.8-20.2,19.8-34.9,40.3-34.9c9.9,0,19.4,3.5,26.8,9.9c7.3,6.3,12.1,15.2,13.5,25l4.5,32h-89.7L-3290.3,178.9z
	 M-3085.8,554.4c-0.5,0.6-1.7,1.6-3.5,1.6h-321.4c-1.8,0-3-1-3.5-1.6c-0.5-0.6-1.4-1.8-1.2-3.6l34.1-306.7c0.3-2.4,2.3-4.2,4.6-4.2
	h188.1c0,0,0,0,0,0c0,0,0,0,0.1,0h65c2.4,0,4.4,1.8,4.6,4.2l34.1,306.7C-3084.5,552.6-3085.3,553.8-3085.8,554.4z"/>
<g id="XMLID_35_">
	<path id="XMLID_38_" class="st1" d="M-2490.8,257.3h-78.4c-29.6,0-53.5,24-53.5,53.5v78.4c0,29.6,24,53.5,53.5,53.5h78.4
		c29.6,0,53.5-24,53.5-53.5v-78.4C-2437.3,281.3-2461.3,257.3-2490.8,257.3z M-2454.4,390.6c0,19.6-15.9,35.5-35.5,35.5h-80.2
		c-19.6,0-35.5-15.9-35.5-35.5v-80.2c0-19.6,15.9-35.5,35.5-35.5h80.2c19.6,0,35.5,15.9,35.5,35.5V390.6z"/>
	<path id="XMLID_41_" class="st1" d="M-2530,302.4c-26.6,0-48.1,21.5-48.1,48.1s21.5,48.1,48.1,48.1s48.1-21.5,48.1-48.1
		S-2503.4,302.4-2530,302.4z M-2530,381.6c-17.2,0-31.2-14-31.2-31.2c0-17.2,14-31.2,31.2-31.2s31.2,14,31.2,31.2
		C-2498.8,367.7-2512.8,381.6-2530,381.6z"/>
	<circle id="XMLID_42_" class="st1" cx="-2480.3" cy="300.5" r="11.2"/>
</g>
<g>
	<path class="st1" d="M-1810.3,440.9c-9.2,0-18.1-1-26.3-2.8l-5.3-1.2v-84.9h-18.9v-41.1h18.9v-2.6c0-12.1,1.4-21.2,4.2-27.1
		c2.7-6.5,7.7-11.7,15.6-16.1c6.9-4,15.5-5.9,26.9-5.9c12.1,0,21.9,1.4,30.6,4.5l5.5,1.9l-6.9,37.1l-7.2-2
		c-4.4-1.2-9.4-1.9-13.8-1.9c-3.3,0-4.9,0.9-5.2,1.2l-0.3,0.4c-0.2,0.2-1.3,1.7-1.3,8.6v2h25.1v41.1h-25.1v87.3l-5.6,1
		C-1803.2,440.9-1806.8,440.9-1810.3,440.9z M-1828.3,425.8c6.6,1.1,14,1.5,20.9,1.4v-89h25.1v-13.8h-25.1v-15.7
		c0-6.3,0.6-13.3,5-17.9c3.3-3.7,8.8-5.8,15.4-5.8c3.3,0,6.8,0.3,10.2,0.8l2-11c-5.9-1.4-12.5-2.1-20.5-2.1
		c-8.9,0-15.3,1.3-20.2,4.2c-5.3,2.9-8.2,5.8-9.8,9.7c-1.2,2.6-3,8.4-3,21.6v16.3h-18.9v13.8h18.9V425.8z"/>
</g>
<path class="st1" d="M-1810,574.4c-123.7,0-224.4-100.6-224.4-224.4c0-123.7,100.6-224.4,224.4-224.4s224.4,100.6,224.4,224.4
	C-1585.6,473.7-1686.3,574.4-1810,574.4z M-1810,143.6c-113.8,0-206.4,92.6-206.4,206.4c0,113.8,92.6,206.4,206.4,206.4
	s206.4-92.6,206.4-206.4C-1603.6,236.2-1696.2,143.6-1810,143.6z"/>
<path class="st1" d="M-2530,574.4c-123.7,0-224.4-100.6-224.4-224.4c0-123.7,100.6-224.4,224.4-224.4s224.4,100.6,224.4,224.4
	C-2305.6,473.7-2406.3,574.4-2530,574.4z M-2530,143.6c-113.8,0-206.4,92.6-206.4,206.4c0,113.8,92.6,206.4,206.4,206.4
	s206.4-92.6,206.4-206.4C-2323.6,236.2-2416.2,143.6-2530,143.6z"/>
<g>
	<path class="st2" d="M-925.1,310.1c-18.4-77-84.8-129.5-165-130.5c-10.6,0.5-22,1.3-32.3,3.2c-112.3,22.7-170.1,146.6-115.8,246.4
		c1.9,2.9,1.9,5.3,1.6,8.4c-7.9,25.9-15.2,52.5-22.2,78.7c-1.2,4.5-1.2,4.5,3.2,3.4c27.4-7.5,54.6-14.5,81.9-21.3
		c2.4-0.8,4.1-0.8,6.1,0.3c35.1,17.9,72.2,22.9,111.1,15.7C-963.8,496.5-902.9,401.9-925.1,310.1z M-1066.3,487.3
		c-8.1,1.4-15.7,2.2-19.5,1.7c-29.9,0-53.9-6.7-76.3-19.6c-3.2-2-5.6-2.5-8.6-1.3c-15.3,3.6-30.2,7.8-45.4,11.7
		c-3.1,0.9-3.4,0.3-2.7-2.7c4-14,7.8-28.3,12.2-42.8c1-3.9,0.7-7-1.8-10c-30.7-50-29.3-111.3,5-157.8c35.7-47.7,84.8-67.5,143-55
		c57.5,12.1,94.3,49.4,107.4,106.7C-934.3,396.7-987.2,474.5-1066.3,487.3z"/>
	<path class="st2" d="M-1045.8,429.3c-5.9,0.7-11.9-0.5-17.6-2.2c-38.7-11.4-68-35.1-91.5-67.3c-8.8-11.9-17.1-24.8-19.6-39.9
		c-3.6-17.5,1.9-33.2,15.2-45.1c4.4-4.3,17.3-6.2,22.6-3.4c1.7,1.4,2.7,2.7,3.8,4.4c4.8,12.1,9.9,23.2,14.8,34.6
		c0.7,2.6,0.6,4.8-0.7,7.3c-2.6,5.3-6.5,9.5-10.4,14c-3.2,2.7-3.2,5.8-1,9.2c13.9,23.2,32.6,39.9,57.7,49.6c3.6,1.4,6.4,0.9,8.7-1.9
		c4.3-5.1,8.6-10.6,12.6-15.9c2.5-3.2,5.8-3.9,9.4-2.2c8.3,3.6,16.5,7.5,24.4,11.2c2.2,1.2,3.8,1.9,5.7,2.8
		c8.4,4.2,8.4,4.7,7.4,13.6c-1.1,17.6-14.7,26.6-30.1,31C-1038.7,429.9-1042.1,429.9-1045.8,429.3z"/>
</g>
<path class="st3" d="M-372.6,172.8c-97.4,0-176.3,64.5-176.3,144.1c0,28.8,10.3,55.5,28.1,78c-1.1,17.2,3.5,38.5,14,59.5
	c20.1,40.3,54.3,64,76.2,53.1c14.1-7,19.7-26.7,16.7-50.4c13.3,2.6,27.1,4,41.3,4c97.4,0,176.3-64.5,176.3-144.1
	S-275.2,172.8-372.6,172.8z"/>
<g id="Chat_bubble">
	<g>
		<path class="st1" d="M-370,118.8c-109.5,0-198.2,74-198.2,165.2c0,115.5,99.1,214.7,99.1,214.7c9.8,11.4,23.9,16.5,33,16.5
			c9.1,0,14.5-8.9,16.5-16.5l16.5-49.5h33c109.5,0,198.2-74,198.2-165.2S-260.5,118.8-370,118.8z M-370,416.1
			c-20.5,0-40.1-3.1-58.2-8.6l-20.7,58.2c-19.2-19.2-86.2-104.4-86.2-181.7c0-73,74-132.1,165.2-132.1s165.2,59.2,165.2,132.1
			C-204.8,356.9-278.8,416.1-370,416.1z"/>
	</g>
	<g>
		<path class="st4" d="M-370,118.8c-109.5,0-198.2,74-198.2,165.2c0,115.5,99.1,214.7,99.1,214.7c9.8,11.4,23.9,16.5,33,16.5
			c9.1,0,14.5-8.9,16.5-16.5l16.5-49.5h33c109.5,0,198.2-74,198.2-165.2S-260.5,118.8-370,118.8z M-370,416.1
			c-20.5,0-40.1-3.1-58.2-8.6l-20.7,58.2c-19.2-19.2-86.2-104.4-86.2-181.7c0-73,74-132.1,165.2-132.1s165.2,59.2,165.2,132.1
			C-204.8,356.9-278.8,416.1-370,416.1z"/>
	</g>
</g>
<g id="Search">
	<g>
		<path class="st1" d="M568.9,542.4L425.3,398.9c23-28.8,36.9-65.2,36.9-104.9c0-92.9-75.3-168.3-168.3-168.3
			c-92.9,0-168.3,75.3-168.3,168.3c0,92.9,75.3,168.3,168.3,168.3c39.7,0,76.2-13.8,104.9-36.9l143.6,143.6
			c3.4,3.4,8.1,5.5,13.2,5.5c10.3,0,18.7-8.4,18.7-18.7C574.4,550.5,572.3,545.8,568.9,542.4z M293.9,424.8
			c-72.3,0-130.9-58.6-130.9-130.9c0-72.3,58.6-130.9,130.9-130.9c72.3,0,130.9,58.6,130.9,130.9
			C424.8,366.2,366.2,424.8,293.9,424.8z"/>
	</g>
</g>
<circle class="st5" cx="-436.1" cy="283.9" r="16.1"/>
<circle class="st5" cx="-370" cy="283.9" r="16.1"/>
<circle class="st5" cx="-303.9" cy="283.9" r="16.1"/>
</svg>
