<?xml version="1.0" encoding="utf-8"?>
<!-- Generator: Adobe Illustrator 24.0.3, SVG Export Plug-In . SVG Version: 6.00 Build 0)  -->
<svg version="1.1" id="map-planner" xmlns="http://www.w3.org/2000/svg" xmlns:xlink="http://www.w3.org/1999/xlink" x="0px"
	 y="0px" viewBox="0 0 700 700" style="enable-background:new 0 0 700 700;" xml:space="preserve">
<style type="text/css">
	.st0{fill:#49545C;}
	.st1{fill:#5B5B5B;}
	.st2{fill-rule:evenodd;clip-rule:evenodd;fill:#5B5B5B;}
	.st3{fill:#FFFFFF;}
	.st4{fill:none;stroke:#FFFFFF;stroke-width:4;stroke-miterlimit:10;}
	.st5{fill:#5B5B5B;stroke:#FFFFFF;stroke-width:0.75;stroke-miterlimit:10;}
</style>
<g id="XMLID_35_">
	<path id="XMLID_38_" class="st1" d="M389.2,257.3h-78.4c-29.6,0-53.5,24-53.5,53.5v78.4c0,29.6,24,53.5,53.5,53.5h78.4
		c29.6,0,53.5-24,53.5-53.5v-78.4C442.7,281.3,418.7,257.3,389.2,257.3z M425.6,390.6c0,19.6-15.9,35.5-35.5,35.5h-80.2
		c-19.6,0-35.5-15.9-35.5-35.5v-80.2c0-19.6,15.9-35.5,35.5-35.5h80.2c19.6,0,35.5,15.9,35.5,35.5V390.6z"/>
	<path id="XMLID_41_" class="st1" d="M350,302.4c-26.6,0-48.1,21.5-48.1,48.1s21.5,48.1,48.1,48.1c26.6,0,48.1-21.5,48.1-48.1
		S376.6,302.4,350,302.4z M350,381.6c-17.2,0-31.2-14-31.2-31.2c0-17.2,14-31.2,31.2-31.2c17.2,0,31.2,14,31.2,31.2
		C381.2,367.7,367.2,381.6,350,381.6z"/>
	<circle id="XMLID_42_" class="st1" cx="399.7" cy="300.5" r="11.2"/>
</g>
<path class="st1" d="M350,128.1c-122.3,0-221.9,99.5-221.9,221.9S227.7,571.9,350,571.9S571.9,472.3,571.9,350
	S472.3,128.1,350,128.1z M350,558.9c-115.2,0-208.9-93.7-208.9-208.9S234.8,141.1,350,141.1S558.9,234.8,558.9,350
	S465.2,558.9,350,558.9z"/>
</svg>
